<svg width="200" height="200" viewBox="0 0 200 200" fill="none" xmlns="http://www.w3.org/2000/svg">
<path d="M29.2969 187.891H182.422C192.114 187.891 200 180.005 200 170.312V64.8438C200 55.1512 192.114 47.2656 182.422 47.2656H152.734V12.1094H29.2969C13.1426 12.1094 0 25.252 0 41.4062V158.594H0.00703125C0.0371094 174.767 13.0691 187.891 29.2969 187.891ZM182.422 176.172H29.2969C19.6723 176.172 11.7055 168.377 11.7184 158.594L11.7188 158.489C11.7926 147.992 20.8797 141.016 30.5508 141.016H47.2656V164.453H182.422C185.653 164.453 188.281 167.082 188.281 170.312C188.281 173.543 185.653 176.172 182.422 176.172ZM182.422 58.9844C185.653 58.9844 188.281 61.6129 188.281 64.8438V153.742C186.454 153.094 184.489 152.737 182.442 152.735C182.442 152.735 123.444 152.734 58.9844 152.734V141.016H117.6C118.009 140.778 152.734 134.038 152.734 100V58.9844H182.422ZM117.566 105.855H140.426C138.091 117.313 129.033 126.364 117.578 128.705L117.566 105.855ZM29.2969 23.8281H141.016V94.1406H105.86L105.875 129.297C102.51 129.297 33.0836 129.297 29.2969 129.297V129.324C22.7559 129.583 16.6453 131.848 11.7188 135.516V41.4062C11.7188 31.7137 19.6043 23.8281 29.2969 23.8281V23.8281Z" fill="white"/>
<path d="M129.297 35.5469H82.4219V82.4219H129.297V35.5469ZM117.578 70.7031H94.1406V47.2656H117.578V70.7031Z" fill="white"/>
<path d="M82.4219 94.1406H94.1406V117.578H82.4219V94.1406Z" fill="white"/>
<path d="M58.9844 35.5469H70.7031V117.578H58.9844V35.5469Z" fill="white"/>
<path d="M35.5469 35.5469H47.2656V117.578H35.5469V35.5469Z" fill="white"/>
</svg>
