<svg width="200" height="200" viewBox="0 0 200 200" fill="none" xmlns="http://www.w3.org/2000/svg">
<g clip-path="url(#clip0)">
<path d="M129.706 0C90.9459 0 59.4121 31.5339 59.4121 70.294C59.4121 87.5699 65.6803 103.407 76.0569 115.659L65.2699 126.446L56.9865 118.163L0 175.149L24.8509 200L81.8378 143.013L73.5544 134.73L84.341 123.943C96.5933 134.32 112.43 140.588 129.706 140.588C168.466 140.588 200 109.054 200 70.294C200 31.5339 168.467 0 129.706 0ZM16.5687 175.149L39.4134 152.304L47.696 160.587L24.8513 183.432L16.5687 175.149ZM55.9798 152.303L47.6972 144.02L56.9865 134.731L65.2691 143.013L55.9798 152.303ZM129.706 128.872C97.406 128.872 71.1277 102.594 71.1277 70.294C71.1277 37.9939 97.406 11.7157 129.706 11.7157C162.006 11.7157 188.284 37.9939 188.284 70.294C188.284 102.594 162.007 128.872 129.706 128.872Z" fill="white"/>
<path d="M129.706 52.7188C120.016 52.7188 112.133 60.6022 112.133 70.2922C112.133 79.9823 120.016 87.8657 129.706 87.8657C139.396 87.8657 147.28 79.9823 147.28 70.2922C147.28 60.6022 139.396 52.7188 129.706 52.7188ZM129.706 76.1501C126.476 76.1501 123.848 73.5222 123.848 70.2922C123.848 67.0622 126.476 64.4344 129.706 64.4344C132.936 64.4344 135.564 67.0622 135.564 70.2922C135.564 73.5222 132.936 76.1501 129.706 76.1501Z" fill="white"/>
<path d="M129.706 29.2891C100.831 29.2891 78.7399 65.7396 77.8136 67.2915L76.0215 70.2939L77.8136 73.2962C78.7399 74.8481 100.831 111.299 129.706 111.299C158.581 111.299 180.672 74.8481 181.599 73.2962L183.391 70.2939L181.599 67.2915C180.672 65.7396 158.581 29.2891 129.706 29.2891V29.2891ZM129.706 99.583C111.576 99.583 95.3098 78.2984 89.8315 70.2888C98.6202 57.4195 114.067 41.0047 129.706 41.0047C147.833 41.0047 164.099 62.2847 169.581 70.2993C160.792 83.1678 145.346 99.583 129.706 99.583Z" fill="white"/>
</g>
<defs>
<clipPath id="clip0">
<rect width="200" height="200" fill="white"/>
</clipPath>
</defs>
</svg>
