<svg width="200" height="200" viewBox="0 0 200 200" fill="none" xmlns="http://www.w3.org/2000/svg">
<g clip-path="url(#clip0)">
<path d="M155.565 114.784L127.005 135.148H102.4C94.5548 127.586 84.267 123.431 73.3399 123.431C66.7105 123.431 59.9179 125.002 54.2138 127.854L39.6259 135.148H35.1505V123.431H0V193.732H35.1505V183.643L67.4819 191.646C73.0204 193.03 78.7238 193.732 84.4326 193.732C115.299 193.732 131.646 174.568 138.773 170.299H164.426V164.44C164.426 160.291 163.554 156.342 161.991 152.762L200 125.298L196.422 120.527C186.742 107.621 168.438 105.037 155.565 114.784V114.784ZM23.4337 182.016H11.7168V135.148H23.4337V182.016ZM94.1252 158.582V170.295H119.442C109.411 177.856 96.9935 182.016 84.4326 182.016C79.6807 182.016 74.9338 181.431 70.3103 180.275L35.1505 171.572V146.865H42.3919L59.4535 138.334C63.5626 136.28 68.4942 135.148 73.3399 135.148C81.4007 135.148 88.9792 138.287 94.679 143.987L97.557 146.865H135.134C142.772 146.865 149.288 151.762 151.706 158.582H94.1252ZM155.25 143.177C152.296 140.382 148.765 138.193 144.853 136.812L162.591 124.161C168.657 119.537 176.706 119.553 182.618 123.402L155.25 143.177Z" fill="white"/>
<path d="M140.992 111.717V6.26562H82.4082V111.717H140.992ZM94.125 100V88.2834H129.276V100H94.125ZM94.125 76.5666V41.4161H129.276V76.5666H94.125ZM129.276 17.9825V29.6993H94.125V17.9825H129.276Z" fill="white"/>
<path d="M103.396 58.9961L111.68 50.7123L119.964 58.9961L111.68 67.2799L103.396 58.9961Z" fill="white"/>
</g>
<defs>
<clipPath id="clip0">
<rect width="200" height="200" fill="white"/>
</clipPath>
</defs>
</svg>
