<svg width="200" height="200" viewBox="0 0 200 200" fill="none" xmlns="http://www.w3.org/2000/svg">
<path d="M100 200C109.693 200 117.578 192.114 117.578 182.422V176.562H176.562V164.844C175.819 162.515 175.317 148.741 160.654 135.18C155.87 130.756 153.125 124.482 153.125 117.969V76.1719C153.125 52.4656 137.284 32.3648 115.558 25.7465C116.845 23.3039 117.578 20.5258 117.578 17.5781C117.578 7.88555 109.693 0 100 0C90.3074 0 82.4219 7.88555 82.4219 17.5781C82.4219 20.5258 83.1547 23.3039 84.4422 25.7465C62.7164 32.3645 46.875 52.4656 46.875 76.1719V117.969C46.875 124.482 44.1309 130.755 39.3457 135.18C29.0875 144.667 23.4379 156.621 23.4375 168.84V176.562H82.4219V182.422C82.4219 192.114 90.3074 200 100 200ZM105.859 182.422C105.859 185.653 103.231 188.281 100 188.281C96.7691 188.281 94.1406 185.653 94.1406 182.422V176.562H105.859V182.422ZM94.1406 17.5781C94.1406 14.3473 96.7691 11.7188 100 11.7188C103.231 11.7188 105.859 14.3473 105.859 17.5781C105.859 20.809 103.231 23.4375 100 23.4375C96.7691 23.4375 94.1406 20.809 94.1406 17.5781ZM58.5938 76.1719C58.5938 53.5559 77.1684 35.1562 100 35.1562C122.831 35.1562 141.406 53.5559 141.406 76.1719V117.969C141.406 126.624 144.638 134.995 150.364 141.406H49.6352C55.3617 134.995 58.5938 126.624 58.5938 117.969V76.1719ZM39.6766 153.125H160.323C162.54 156.878 163.981 160.833 164.557 164.844H35.4438C36.0191 160.833 37.4602 156.877 39.6766 153.125V153.125Z" fill="white"/>
<path d="M31.4937 3.02344C13.8289 19.3473 2.65664 41.4199 0.0351562 65.1754L11.6832 66.4609C13.9949 45.5109 23.8555 26.0383 39.4473 11.6301L31.4937 3.02344Z" fill="white"/>
<path d="M199.964 65.1754C197.343 41.4195 186.17 19.3469 168.505 3.02344L160.553 11.6301C176.145 26.0379 186.005 45.5105 188.317 66.4609L199.964 65.1754Z" fill="white"/>
<path d="M58.7504 25.902L51.4117 16.7656C35.5254 29.5266 25.5531 47.6383 23.332 67.7648L34.9801 69.0504C36.8582 52.0297 45.3 36.7059 58.7504 25.902Z" fill="white"/>
<path d="M148.589 16.7656L141.25 25.902C154.7 36.7063 163.142 52.0297 165.02 69.05L176.668 67.7648C174.447 47.6387 164.475 29.527 148.589 16.7656V16.7656Z" fill="white"/>
</svg>
