<svg width="60" height="57" viewBox="0 0 60 57" fill="none" xmlns="http://www.w3.org/2000/svg">
<g clip-path="url(#clip0)">
<path d="M53.3286 15.5393C52.407 15.5393 51.6582 16.2871 51.6582 17.2097V47.7101C51.6582 50.9333 49.0353 53.5559 45.8121 53.5559H9.1866C5.96373 53.5559 3.34071 50.9333 3.34071 47.7101V11.0842C3.34071 7.86064 5.96373 5.23816 9.1866 5.23816H45.8121C46.7352 5.23816 47.4828 4.4902 47.4828 3.56782C47.4828 2.64528 46.7358 1.89746 45.8121 1.89746H9.1866C4.12206 1.8976 0 6.01867 0 11.0841V47.7098C0 52.7753 4.12206 56.8964 9.1866 56.8964H45.8121C50.8785 56.8964 54.999 52.7753 54.999 47.7098V17.2095C54.9987 16.2873 54.252 15.5393 53.3286 15.5393Z" fill="#222222"/>
<path d="M59.5106 0.630953C58.8581 -0.0215157 57.7994 -0.0215157 57.149 0.630953L23.5861 34.192L15.1973 25.804C14.545 25.1517 13.4878 25.1517 12.8354 25.804C12.1831 26.4565 12.1831 27.5138 12.8354 28.1659L22.4068 37.735C22.7332 38.0614 23.1606 38.2243 23.5879 38.2243C24.0152 38.2243 24.4428 38.0614 24.7689 37.735C24.7689 37.7341 24.7689 37.7332 24.7706 37.7323L59.5106 2.99268C60.1631 2.34078 60.1631 1.28285 59.5106 0.630953Z" fill="#222222"/>
<path d="M59.5106 0.630953C58.8581 -0.0215157 57.7994 -0.0215157 57.149 0.630953L23.5861 34.192L15.1973 25.804C14.545 25.1517 13.4878 25.1517 12.8354 25.804C12.1831 26.4565 12.1831 27.5138 12.8354 28.1659L22.4068 37.735C22.7332 38.0614 23.1606 38.2243 23.5879 38.2243C24.0152 38.2243 24.4428 38.0614 24.7689 37.735C24.7689 37.7341 24.7689 37.7332 24.7706 37.7323L59.5106 2.99268C60.1631 2.34078 60.1631 1.28285 59.5106 0.630953Z" fill="#DF4945"/>
</g>
<defs>
<clipPath id="clip0">
<rect width="60" height="57" fill="white"/>
</clipPath>
</defs>
</svg>
