<svg width="60" height="60" viewBox="0 0 60 60" fill="none" xmlns="http://www.w3.org/2000/svg">
<path d="M58.8169 30.3116C57.8869 29.1116 56.5407 28.3504 55.0408 28.1667C53.5521 27.9717 52.0934 28.3992 50.9347 29.3066L37.5738 39.6676C36.2801 40.6875 34.6527 41.25 32.999 41.25H29.7816C32.2227 38.8651 33.7489 35.5502 33.7489 31.8791C33.7489 30.8441 32.909 30.0041 31.874 30.0041L11.2496 30.0004V28.1254C11.2496 27.0905 10.4097 26.2505 9.37471 26.2505H1.87494C0.839974 26.2505 0 27.0905 0 28.1254V54.3746C0 55.4096 0.839974 56.2496 1.87494 56.2496H9.37471C10.4097 56.2496 11.2496 55.4096 11.2496 54.3746V52.4997H36.2239C38.2638 52.4997 40.2925 51.8022 41.9462 50.531L57.8044 38.1976C59.0044 37.2714 59.7694 35.9327 59.9569 34.429C60.1406 32.9403 59.7319 31.4741 58.8169 30.3116ZM7.49977 52.4997H3.74988V30.0004H7.49977V52.4997ZM56.237 33.964C56.1732 34.4665 55.9183 34.9165 55.5095 35.2352L39.655 47.5648C38.6613 48.3298 37.4388 48.7498 36.2239 48.7498H11.2496V33.7503L29.8116 33.754C28.9416 38.0251 25.1505 41.25 20.6244 41.25C19.5894 41.25 18.7494 42.09 18.7494 43.125C18.7494 44.1599 19.5894 44.9999 20.6244 44.9999H32.999C35.4926 44.9999 37.9413 44.1487 39.8875 42.6187L53.2483 32.2615C53.6271 31.9616 54.1071 31.8416 54.5833 31.8866C55.0895 31.9503 55.5395 32.2053 55.862 32.6215C56.162 33.004 56.2932 33.4803 56.237 33.964Z" fill="#DF4945"/>
<path d="M50.6234 3.75098H9.3747C8.33973 3.75098 7.49976 4.59095 7.49976 5.62592V20.6254C7.49976 21.6604 8.33973 22.5004 9.3747 22.5004C10.4097 22.5004 11.2496 21.6604 11.2496 20.6254V7.50086H22.4993V16.8756C22.4993 17.5693 22.8818 18.203 23.4893 18.5255C24.1005 18.8555 24.8355 18.818 25.4167 18.4355L29.9991 15.3794L34.5852 18.4355C34.9001 18.6455 35.2601 18.7505 35.6239 18.7505C35.9276 18.7505 36.2314 18.6755 36.5089 18.5255C37.1163 18.203 37.4988 17.5693 37.4988 16.8756V7.50086H48.7485V24.3753C48.7485 25.4103 49.5884 26.2503 50.6234 26.2503C51.6584 26.2503 52.4984 25.4103 52.4984 24.3753V5.62592C52.4984 4.59095 51.6584 3.75098 50.6234 3.75098ZM33.7489 13.3694L31.0378 11.5657C30.4078 11.1495 29.5866 11.1495 28.9566 11.5657L26.2492 13.3694V7.50086H33.7489V13.3694Z" fill="#DF4945"/>
</svg>
