<svg width="60" height="60" viewBox="0 0 60 60" fill="none" xmlns="http://www.w3.org/2000/svg">
<path d="M25.3126 56.899L20.6917 45.349L22.4335 44.6515L25.3126 51.8515L26.5529 48.7503H30.1838L26.3926 42.6847L27.9826 41.6909L33.5663 50.6253H27.8223L25.3126 56.899Z" fill="#333333"/>
<path d="M14.9998 56.899L12.4902 50.6253H6.74609L12.3298 41.6909L13.9198 42.6847L10.1286 48.7503H13.7595L14.9998 51.8515L17.8789 44.6515L19.6208 45.349L14.9998 56.899Z" fill="#333333"/>
<path d="M19.6875 45.9375C13.4841 45.9375 8.4375 40.8909 8.4375 34.6875C8.4375 28.4841 13.4841 23.4375 19.6875 23.4375C25.8909 23.4375 30.9375 28.4841 30.9375 34.6875C30.9375 40.8909 25.8909 45.9375 19.6875 45.9375ZM19.6875 28.125C16.0688 28.125 13.125 31.0688 13.125 34.6875C13.125 38.3062 16.0688 41.25 19.6875 41.25C23.3062 41.25 26.25 38.3062 26.25 34.6875C26.25 31.0688 23.3062 28.125 19.6875 28.125Z" fill="#DF4945"/>
<path d="M19.6875 42.1875C15.5522 42.1875 12.1875 38.8228 12.1875 34.6875C12.1875 30.5522 15.5522 27.1875 19.6875 27.1875C23.8228 27.1875 27.1875 30.5522 27.1875 34.6875C27.1875 38.8228 23.8228 42.1875 19.6875 42.1875ZM19.6875 29.0625C16.5853 29.0625 14.0625 31.5853 14.0625 34.6875C14.0625 37.7897 16.5853 40.3125 19.6875 40.3125C22.7897 40.3125 25.3125 37.7897 25.3125 34.6875C25.3125 31.5853 22.7897 29.0625 19.6875 29.0625Z" fill="#333333"/>
<path d="M55.3659 9.53744L55.3068 9.00682C55.2459 8.45744 55.0087 7.79932 54.6028 7.05213L54.3347 6.55807L52.6472 6.57025L52.0837 4.894L51.5559 4.78525C50.9343 4.65682 50.3184 4.65682 49.6968 4.78525L49.1634 4.894L48.6122 6.56744L46.8168 6.55994L46.5497 7.05119C46.4831 7.17307 46.4212 7.30807 46.3622 7.44588C46.2993 7.3165 46.2375 7.18713 46.1643 7.05119L45.8962 6.55713L44.2087 6.56932L43.6453 4.89307L43.1175 4.78432C42.4959 4.65588 41.88 4.65588 41.2584 4.78432L40.7259 4.894L40.1747 6.56744L38.3793 6.55994L38.1122 7.05119C38.0456 7.17307 37.9837 7.30807 37.9247 7.44588C37.8618 7.3165 37.8 7.18713 37.7268 7.05119L37.4587 6.55713L35.7712 6.56932L35.2078 4.89307L34.68 4.78432C34.0584 4.65588 33.4425 4.65588 32.8209 4.78432L32.2884 4.894L31.7372 6.56744L29.9418 6.55994L29.6747 7.05119C29.3728 7.60525 29.1403 8.35432 29.0681 9.00682L29.009 9.53744L30.4781 10.6446L29.9147 12.4418L30.2672 12.8384C30.6937 13.3193 31.1981 13.6999 31.7653 13.9709L32.279 14.2165L33.75 13.1084L35.2209 14.2165L35.7347 13.9709C36.3018 13.6999 36.8062 13.3193 37.2328 12.8384L37.5853 12.4418L37.0218 10.6446L37.9697 9.93119L38.9175 10.6446L38.354 12.4418L38.7065 12.8384C39.1331 13.3193 39.6375 13.6999 40.2047 13.9709L40.7184 14.2165L42.1875 13.1084L43.6584 14.2165L44.1722 13.9709C44.7393 13.6999 45.2437 13.3193 45.6703 12.8384L46.0228 12.4418L45.4593 10.6446L46.4072 9.93119L47.355 10.6446L46.7915 12.4418L47.144 12.8384C47.5706 13.3193 48.075 13.6999 48.6422 13.9709L49.1559 14.2165L50.625 13.1084L52.0959 14.2165L52.6097 13.9709C53.1768 13.6999 53.6812 13.3193 54.1078 12.8384L54.4603 12.4418L53.8968 10.6446L55.3659 9.53744Z" fill="#DF4945"/>
<path d="M56.25 17.8125C57.8006 17.8125 59.0625 16.5506 59.0625 15V3.75C59.0625 2.19937 57.8006 0.9375 56.25 0.9375H28.125C26.5744 0.9375 25.3125 2.19937 25.3125 3.75V6.58031C23.7431 5.39813 21.7997 4.6875 19.6875 4.6875C14.5181 4.6875 10.3125 8.89313 10.3125 14.0625V19.6894C7.16063 19.7081 4.51031 22.0734 4.14188 25.2084L0.980625 52.0809C0.9525 52.3238 0.9375 52.5675 0.9375 52.8113C0.9375 56.2584 3.74156 59.0625 7.18875 59.0625H32.1863C35.6334 59.0625 38.4375 56.2584 38.4375 52.8113C38.4375 52.5675 38.4225 52.3228 38.3944 52.0809L37.8919 47.8125H39.1528L39.6422 48.0572C40.5497 48.5109 41.5641 48.75 42.5784 48.75H56.25C57.8006 48.75 59.0625 47.4881 59.0625 45.9375C59.0625 45.2147 58.7803 44.5613 58.3313 44.0625C58.7813 43.5637 59.0625 42.9103 59.0625 42.1875C59.0625 41.4647 58.7803 40.8113 58.3313 40.3125C58.7813 39.8137 59.0625 39.1603 59.0625 38.4375C59.0625 37.7147 58.7803 37.0613 58.3313 36.5625C58.7813 36.0637 59.0625 35.4103 59.0625 34.6875C59.0625 33.1369 57.8006 31.875 56.25 31.875H51.5625C51.0459 31.875 50.625 31.4541 50.625 30.9375V24.6028C50.625 22.9969 49.9997 21.4866 48.8634 20.3503C48.4369 19.9228 47.8678 19.6875 47.2631 19.6875C46.0153 19.6875 45 20.7028 45 21.9506V26.25C45 29.4581 43.4062 32.4356 40.7372 34.215C40.2731 34.5244 39.7341 34.6875 39.1772 34.6875H36.3478L35.2331 25.2084C34.8647 22.0734 32.2144 19.7081 29.0625 19.6894V17.8125H56.25ZM12.1875 14.0625C12.1875 9.92719 15.5522 6.5625 19.6875 6.5625C23.8228 6.5625 27.1875 9.92719 27.1875 14.0625V19.6875H25.3125V14.0625C25.3125 10.9603 22.7897 8.4375 19.6875 8.4375C16.5853 8.4375 14.0625 10.9603 14.0625 14.0625V19.6875H12.1875V14.0625ZM23.4375 14.0625V19.6875H15.9375V14.0625C15.9375 11.9944 17.6194 10.3125 19.6875 10.3125C21.7556 10.3125 23.4375 11.9944 23.4375 14.0625ZM39.1772 36.5625C40.1053 36.5625 41.0044 36.2897 41.7769 35.775C44.9691 33.6469 46.875 30.0863 46.875 26.25V21.9506C46.875 21.6347 47.3147 21.4528 47.5378 21.6759C48.3197 22.4578 48.75 23.4966 48.75 24.6028V30.9375C48.75 32.4881 50.0119 33.75 51.5625 33.75H56.25C56.7666 33.75 57.1875 34.1709 57.1875 34.6875C57.1875 35.2041 56.7666 35.625 56.25 35.625H55.3125V37.5H56.25C56.7666 37.5 57.1875 37.9209 57.1875 38.4375C57.1875 38.9541 56.7666 39.375 56.25 39.375H55.3125V41.25H56.25C56.7666 41.25 57.1875 41.6709 57.1875 42.1875C57.1875 42.7041 56.7666 43.125 56.25 43.125H55.3125V45H56.25C56.7666 45 57.1875 45.4209 57.1875 45.9375C57.1875 46.4541 56.7666 46.875 56.25 46.875H42.5784C41.8547 46.875 41.13 46.7034 40.4822 46.38L39.5963 45.9375H37.6716L36.5691 36.5625H39.1772ZM33.3713 25.4269L36.5325 52.3003C36.5522 52.47 36.5625 52.6406 36.5625 52.8113C36.5625 55.2244 34.5994 57.1875 32.1863 57.1875H7.18875C4.77563 57.1875 2.8125 55.2244 2.8125 52.8113C2.8125 52.6406 2.82281 52.47 2.8425 52.3003L6.00375 25.4269C6.26344 23.2237 8.13188 21.5625 10.35 21.5625H29.025C31.2431 21.5625 33.1116 23.2237 33.3713 25.4269ZM27.1875 8.46094V3.75C27.1875 3.23344 27.6084 2.8125 28.125 2.8125H56.25C56.7666 2.8125 57.1875 3.23344 57.1875 3.75V15C57.1875 15.5166 56.7666 15.9375 56.25 15.9375H29.0625V14.0625C29.0625 11.9616 28.3594 10.0266 27.1875 8.46094V8.46094Z" fill="#333333"/>
</svg>
