<svg width="60" height="60" viewBox="0 0 60 60" fill="none" xmlns="http://www.w3.org/2000/svg">
<path d="M59.7493 47.82L48.8668 28.9275C49.9918 26.3813 50.6256 23.5763 50.6256 20.625C50.6256 9.25125 41.3743 0 30.0006 0C18.6268 0 9.37557 9.25125 9.37557 20.625C9.37557 23.5763 10.0093 26.3812 11.1343 28.9237L0.251824 47.8125C-0.126926 48.4725 -0.0744257 49.2938 0.390574 49.8938C0.855574 50.4938 1.63182 50.7637 2.36307 50.5612L13.3731 47.5987L16.3018 58.605C16.4968 59.34 17.1156 59.8837 17.8656 59.9812C17.9518 59.9962 18.0343 60 18.1131 60C18.7768 60 19.3993 59.6475 19.7368 59.0625L30.0006 41.295L40.2643 59.0625C40.6018 59.6475 41.2243 60 41.8881 60C41.9668 60 42.0531 59.9963 42.1356 59.985C42.8856 59.8875 43.5043 59.3437 43.6993 58.6087L46.6281 47.6025L57.6381 50.565C58.3693 50.7675 59.1493 50.4975 59.6106 49.8975C60.0718 49.2975 60.1281 48.4762 59.7493 47.82ZM18.7581 53.2613L16.5118 44.82C16.3843 44.34 16.0693 43.9275 15.6381 43.6763C15.2068 43.4288 14.6893 43.365 14.2131 43.4888L5.76057 45.7613L13.2981 32.6775C16.2868 36.81 20.7531 39.8025 25.9318 40.845L18.7581 53.2613ZM13.1256 20.625C13.1256 11.3213 20.6968 3.75 30.0006 3.75C39.3043 3.75 46.8756 11.3213 46.8756 20.625C46.8756 29.9287 39.3043 37.5 30.0006 37.5C20.6968 37.5 13.1256 29.9287 13.1256 20.625ZM45.7881 43.4925C45.3081 43.365 44.7943 43.4325 44.3631 43.68C43.9318 43.9275 43.6168 44.34 43.4893 44.8238L41.2431 53.265L34.0693 40.8487C39.2443 39.81 43.7143 36.8138 46.7031 32.6813L54.2406 45.765L45.7881 43.4925Z" fill="#DF4945"/>
<path d="M41.1531 15.9452C40.9544 15.3415 40.4631 14.884 39.8481 14.7227L34.5306 13.3315L31.6131 8.41896C30.9381 7.27896 29.0631 7.27896 28.3919 8.41896L25.4744 13.3315L20.1531 14.7227C19.5344 14.884 19.0469 15.3415 18.8444 15.9452C18.6419 16.549 18.7619 17.209 19.1594 17.7077L22.7256 22.1702L22.3356 28.0015C22.2944 28.6502 22.5906 29.2765 23.1231 29.6552C23.6556 30.034 24.3456 30.1052 24.9419 29.8502L30.0006 27.7015L35.0594 29.8502C35.2956 29.9515 35.5469 30.0002 35.7944 30.0002C36.1769 30.0002 36.5594 29.884 36.8819 29.6552C37.4144 29.2765 37.7106 28.6502 37.6656 28.0015L37.2756 22.1702L40.8381 17.7077C41.2356 17.2127 41.3519 16.549 41.1531 15.9452ZM33.8931 20.4002C33.6006 20.7677 33.4544 21.229 33.4881 21.694L33.7244 25.2077L30.7356 23.9365C30.4994 23.8352 30.2481 23.7865 30.0006 23.7865C29.7531 23.7865 29.5019 23.8352 29.2656 23.9365L26.2806 25.2077L26.5131 21.694C26.5469 21.229 26.4006 20.7677 26.1081 20.4002L23.8919 17.6215L27.1656 16.7627C27.6419 16.639 28.0506 16.3277 28.3019 15.9077L30.0006 13.0465L31.6994 15.9077C31.9506 16.3277 32.3594 16.639 32.8356 16.7627L36.1094 17.6215L33.8931 20.4002Z" fill="#DF4945"/>
</svg>
