<svg width="60" height="60" viewBox="0 0 60 60" fill="none" xmlns="http://www.w3.org/2000/svg">
<path d="M35.625 35.625C34.0716 35.625 32.8125 34.3659 32.8125 32.8125L35.625 30H1.875V34.6875C1.875 36.7584 3.55406 38.4375 5.625 38.4375H40.3125L36.5625 34.6875L35.625 35.625Z" fill="#DF4945"/>
<path d="M28.125 35.625H26.25V33.75H28.125V35.625ZM24.375 35.625H22.5V33.75H24.375V35.625ZM20.625 35.625H18.75V33.75H20.625V35.625Z" fill="#333333"/>
<path d="M20.1753 18.6621L21.979 18.1465L23.4194 23.1853L21.6157 23.7009L20.1753 18.6621Z" fill="#333333"/>
<path d="M4.6875 22.5H14.0625V24.375H4.6875V22.5Z" fill="#333333"/>
<path d="M48.0874 39.1005L46.7618 37.7749L48.0874 36.4493L49.413 37.7749L48.0874 39.1005ZM45.4352 36.4493L44.1096 35.1237L45.4352 33.798L46.7608 35.1237L45.4352 36.4493ZM42.784 33.7971L41.5249 32.538L42.8505 31.2124L44.1096 32.4715L42.784 33.7971Z" fill="#333333"/>
<path d="M22.5 28.125C24.0506 28.125 25.3125 26.8631 25.3125 25.3125C25.3125 24.9825 25.245 24.6694 25.14 24.375H31.1109C31.005 24.6694 30.9375 24.9825 30.9375 25.3125C30.9375 26.8631 32.1994 28.125 33.75 28.125C35.3006 28.125 36.5625 26.8631 36.5625 25.3125C36.5625 24.1341 35.8322 23.1253 34.8009 22.7081L35.9025 15H39.375C40.9256 15 42.1875 13.7381 42.1875 12.1875C42.1875 10.6369 40.9256 9.375 39.375 9.375H37.2506C35.8603 9.375 34.6631 10.4128 34.4672 11.79L34.0088 15H23.1206V16.875H33.7406L32.9372 22.5H22.5C20.9494 22.5 19.6875 23.7619 19.6875 25.3125C19.6875 26.8631 20.9494 28.125 22.5 28.125V28.125ZM36.3234 12.0544C36.3891 11.5959 36.7875 11.25 37.2506 11.25H39.375C39.8916 11.25 40.3125 11.6709 40.3125 12.1875C40.3125 12.7041 39.8916 13.125 39.375 13.125H36.1706L36.3234 12.0544ZM33.75 26.25C33.2334 26.25 32.8125 25.8291 32.8125 25.3125C32.8125 24.7959 33.2334 24.375 33.75 24.375C34.2666 24.375 34.6875 24.7959 34.6875 25.3125C34.6875 25.8291 34.2666 26.25 33.75 26.25ZM22.5 24.375C23.0166 24.375 23.4375 24.7959 23.4375 25.3125C23.4375 25.8291 23.0166 26.25 22.5 26.25C21.9834 26.25 21.5625 25.8291 21.5625 25.3125C21.5625 24.7959 21.9834 24.375 22.5 24.375Z" fill="#333333"/>
<path d="M59.0625 37.5C59.0625 35.4319 57.3806 33.75 55.3125 33.75H54.9244L54.375 34.2994L46.3256 26.25L46.875 25.7006V25.3125C46.875 24.3703 46.5141 23.5181 45.9375 22.8581V10.3125C45.9375 7.72781 43.8347 5.625 41.25 5.625H23.1103V7.5H41.25C42.8006 7.5 44.0625 8.76187 44.0625 10.3125V21.6956C43.7606 21.6169 43.4503 21.5625 43.125 21.5625H42.7369L31.875 32.4244V32.8125C31.875 34.8806 33.5569 36.5625 35.625 36.5625H36.0131L36.5625 36.0131L38.0494 37.5H5.625C4.07437 37.5 2.8125 36.2381 2.8125 34.6875V10.3125C2.8125 8.76187 4.07437 7.5 5.625 7.5H6.88969V5.625H5.625C3.04031 5.625 0.9375 7.72781 0.9375 10.3125V34.6875C0.9375 37.2722 3.04031 39.375 5.625 39.375H16.5112L15.2616 43.125H13.125C11.0569 43.125 9.375 44.8069 9.375 46.875V50.625H24.9253L22.6144 52.9359C21.9356 53.6138 21.5625 54.5138 21.5625 55.4738C21.5625 57.4519 23.1722 59.0625 25.1522 59.0625C26.1103 59.0625 27.0112 58.6894 27.69 58.0116L43.125 42.5756L44.6119 44.0625L44.0625 44.6119V45C44.0625 45.7022 44.2687 46.3528 44.6053 46.9153C42.2081 47.1187 40.3125 49.1128 40.3125 51.5625V54.375H59.0625V51.5625C59.0625 48.9778 56.9597 46.875 54.375 46.875H50.0756L59.0625 37.8881V37.5ZM35.2706 34.6538C34.5206 34.5103 33.9281 33.9178 33.7847 33.1669L43.4803 23.4712C44.2303 23.6147 44.8228 24.2081 44.9663 24.9572L35.2706 34.6538ZM32.4244 43.125H31.6134L30.3638 39.375H36.1753L32.4244 43.125ZM18.4884 39.375H28.3866L29.6362 43.125H17.2388L18.4884 39.375ZM11.25 48.75V46.875C11.25 45.8409 12.0909 45 13.125 45H30.5494L26.7994 48.75H11.25ZM26.3644 56.6859C26.04 57.0094 25.6097 57.1875 25.1522 57.1875C24.2063 57.1875 23.4375 56.4188 23.4375 55.4738C23.4375 55.0228 23.6203 54.5813 23.94 54.2616L39.375 38.8256L41.7994 41.25L26.3644 56.6859ZM37.8881 34.6875L45 27.5756L53.0494 35.625L45.9375 42.7369L37.8881 34.6875ZM54.375 48.75C55.9256 48.75 57.1875 50.0119 57.1875 51.5625V52.5H42.1875V51.5625C42.1875 50.0119 43.4494 48.75 45 48.75H47.8125H48.2006H54.375ZM47.4581 46.8413C46.7081 46.6978 46.1156 46.1053 45.9722 45.3544L55.6678 35.6587C56.4178 35.8022 57.0103 36.3947 57.1538 37.1456L47.4581 46.8413Z" fill="#333333"/>
<path d="M14.0625 28.125H12.1875V26.25H14.0625V28.125ZM10.3125 28.125H8.4375V26.25H10.3125V28.125ZM6.5625 28.125H4.6875V26.25H6.5625V28.125Z" fill="#333333"/>
<path d="M15 21.5625C9.31406 21.5625 4.6875 16.9359 4.6875 11.25C4.6875 5.56406 9.31406 0.9375 15 0.9375C20.6859 0.9375 25.3125 5.56406 25.3125 11.25C25.3125 16.9359 20.6859 21.5625 15 21.5625Z" fill="#DF4945"/>
<path d="M15.9375 10.3125H14.0625C13.5459 10.3125 13.125 9.89156 13.125 9.375V8.4375H15.9375C16.4541 8.4375 16.875 8.85844 16.875 9.375H18.75C18.75 7.82437 17.4881 6.5625 15.9375 6.5625V4.6875H14.0625V6.5625H11.25V9.375C11.25 10.9256 12.5119 12.1875 14.0625 12.1875H15.9375C16.4541 12.1875 16.875 12.6084 16.875 13.125V14.0625H14.0625C13.5459 14.0625 13.125 13.6416 13.125 13.125H11.25C11.25 14.6756 12.5119 15.9375 14.0625 15.9375V17.8125H15.9375V15.9375H18.75V13.125C18.75 11.5744 17.4881 10.3125 15.9375 10.3125Z" fill="white"/>
</svg>
