<svg width="60" height="60" viewBox="0 0 60 60" fill="none" xmlns="http://www.w3.org/2000/svg">
<path d="M8.70947 16.0791H15.4837V18.0146H8.70947V16.0791Z" fill="#DF4945"/>
<path d="M30.9675 16.0791H37.7417V18.0146H30.9675V16.0791Z" fill="#DF4945"/>
<path d="M5.80633 47.047H3.87085V34.4663H11.6128V47.047H5.80633Z" fill="#DF4945"/>
<path d="M34.8386 34.4663V45.1115H42.5806V34.4663H34.8386Z" fill="#DF4945"/>
<path d="M28.0644 23.8211C28.0644 26.4933 25.8978 28.6598 23.2257 28.6598C20.5535 28.6598 18.387 26.4933 18.387 23.8211C18.387 21.1485 20.5535 18.9824 23.2257 18.9824C25.8978 18.9824 28.0644 21.1485 28.0644 23.8211Z" fill="#DF4945"/>
<path d="M32.9033 48.0146H34.8388V49.9501H32.9033V48.0146Z" fill="#333333"/>
<path d="M36.7742 48.0146H38.7097V49.9501H36.7742V48.0146Z" fill="#333333"/>
<path d="M40.6453 48.0146H42.5807V49.9501H40.6453V48.0146Z" fill="#333333"/>
<path d="M20.3225 23.8212C20.3225 25.4217 21.6253 26.7244 23.2257 26.7244C24.8262 26.7244 26.129 25.4217 26.129 23.8212C26.129 22.2203 24.8262 20.918 23.2257 20.918C21.6253 20.918 20.3225 22.2203 20.3225 23.8212ZM24.1935 23.8212C24.1935 24.3542 23.7587 24.7889 23.2257 24.7889C22.6927 24.7889 22.258 24.3542 22.258 23.8212C22.258 23.2877 22.6927 22.8535 23.2257 22.8535C23.7587 22.8535 24.1935 23.2877 24.1935 23.8212Z" fill="white"/>
<path d="M55.1613 42.2951V39.7888C55.1613 36.8535 52.7741 34.4662 49.8387 34.4662C46.9034 34.4662 44.5161 36.8535 44.5161 39.7888V44.1437H35.8065V30.5953H37.7419V28.6598H44.5161V32.5308H46.4516V25.7566C46.4516 24.1556 45.1488 22.8533 43.5484 22.8533H38.7097V11.7172L23.2258 0.362793L7.74194 11.7172V22.8533H2.90323C1.30277 22.8533 0 24.1556 0 25.7566V50.9179C0 52.5183 1.30277 53.8211 2.90323 53.8211H13.5484V57.6921H9.67742V59.6275H34.8387V57.6921H30.9677V53.8211H43.5484C45.1488 53.8211 46.4516 52.5183 46.4516 50.9179V39.7888C46.4516 37.9209 47.9708 36.4017 49.8387 36.4017C51.7066 36.4017 53.2258 37.9209 53.2258 39.7888V42.2951C50.4842 42.7577 48.3871 45.1421 48.3871 48.0146V53.8211C48.3871 57.0229 50.9912 59.6275 54.1935 59.6275C57.3959 59.6275 60 57.0229 60 53.8211V48.0146C60 45.1431 57.9029 42.7587 55.1613 42.2951ZM33.871 44.5132L31.9355 45.4809V30.5953H33.871V44.5132ZM10.6452 30.5953V46.0791H1.93548V28.6598H8.70968V30.5953H10.6452ZM12.5806 30.5953H14.5161V46.0791H12.5806V30.5953ZM16.4516 30.5953H20.3226V46.0791H16.4516V30.5953ZM22.2581 30.5953H24.1935V46.0791H22.2581V30.5953ZM26.129 30.5953H30V46.0791H26.129V30.5953ZM35.8065 28.6598H10.6452V28.1372L23.2258 17.3536L35.8065 28.1372V28.6598ZM44.5161 25.7566V26.7243H37.1324L34.8746 24.7888H43.5484C44.0814 24.7888 44.5161 25.2231 44.5161 25.7566ZM34.7853 11.2404H11.6663L23.2258 2.76277L34.7853 11.2404ZM9.67742 13.1759H36.7742V22.8533H32.6159L23.2258 14.8043L13.8357 22.8533H9.67742V13.1759ZM2.90323 24.7888H11.577L9.31924 26.7243H1.93548V25.7566C1.93548 25.2231 2.37021 24.7888 2.90323 24.7888ZM43.5484 51.8856H17.4194V53.8211H29.0323V57.6921H15.4839V51.8856H2.90323C2.37021 51.8856 1.93548 51.4509 1.93548 50.9179V48.0146H31.196L35.0669 46.0791H44.5161V50.9179C44.5161 51.4509 44.0814 51.8856 43.5484 51.8856ZM54.1935 44.1437C56.3284 44.1437 58.0645 45.8797 58.0645 48.0146V48.9824H55.1613V46.0791H53.2258V48.9824H50.3226V48.0146C50.3226 45.8797 52.0587 44.1437 54.1935 44.1437ZM54.1935 57.6921C52.0587 57.6921 50.3226 55.9555 50.3226 53.8211V50.9179H58.0645V53.8211C58.0645 55.9555 56.3284 57.6921 54.1935 57.6921Z" fill="#333333"/>
<path d="M32.9033 16.0791H34.8388V18.0146H32.9033V16.0791Z" fill="#333333"/>
<path d="M29.0322 16.0791H30.9677V18.0146H29.0322V16.0791Z" fill="#333333"/>
<path d="M15.4839 16.0791H17.4194V18.0146H15.4839V16.0791Z" fill="#333333"/>
<path d="M11.6128 16.0791H13.5483V18.0146H11.6128V16.0791Z" fill="#333333"/>
</svg>
