<svg width="60" height="60" viewBox="0 0 60 60" fill="none" xmlns="http://www.w3.org/2000/svg">
<path d="M52.4663 12.96C52.455 12.8325 52.4287 12.7163 52.3912 12.5925C52.3537 12.4688 52.3087 12.3563 52.2487 12.2438C52.2225 12.195 52.2188 12.135 52.185 12.0863L44.685 0.83625C44.3363 0.315 43.7512 0 43.125 0H9.375C8.74875 0 8.16375 0.315 7.815 0.83625L0.315 12.0863C0.28125 12.135 0.2775 12.1913 0.25125 12.2438C0.19125 12.3563 0.14625 12.4688 0.10875 12.5925C0.07125 12.7163 0.045 12.8325 0.03375 12.96C0.03 13.0163 0 13.065 0 13.125V48.75C0 50.82 1.68 52.5 3.75 52.5H28.125C29.16 52.5 30 51.66 30 50.625C30 49.59 29.16 48.75 28.125 48.75H3.75V15H18.75V24.375C18.75 24.9787 19.0388 25.545 19.53 25.8938C20.0138 26.25 20.64 26.3362 21.2175 26.1562L26.25 24.4762L31.2825 26.1525C31.4775 26.2162 31.6763 26.25 31.875 26.25C32.265 26.25 32.6475 26.13 32.97 25.8938C33.4612 25.545 33.75 24.9787 33.75 24.375V15H48.75V28.125C48.75 29.16 49.59 30 50.625 30C51.66 30 52.5 29.16 52.5 28.125V13.125C52.5 13.065 52.47 13.0163 52.4663 12.96ZM19.035 11.25H5.3775L10.38 3.75H20.2875L19.035 11.25ZM24.09 3.75H28.4138L29.6625 11.25H22.8375L24.09 3.75ZM30 21.7763L26.8425 20.7188C26.4525 20.595 26.0438 20.595 25.6575 20.7188L22.5 21.7763V15H30V21.7763ZM33.465 11.25L32.2125 3.75H42.12L47.1225 11.25H33.465Z" fill="#DF4945"/>
<path d="M46.875 33.75C39.6375 33.75 33.75 39.6375 33.75 46.875C33.75 54.1125 39.6375 60 46.875 60C54.1125 60 60 54.1125 60 46.875C60 39.6375 54.1125 33.75 46.875 33.75ZM46.875 56.25C41.7038 56.25 37.5 52.0462 37.5 46.875C37.5 41.7038 41.7038 37.5 46.875 37.5C52.0462 37.5 56.25 41.7038 56.25 46.875C56.25 52.0462 52.0462 56.25 46.875 56.25Z" fill="#DF4945"/>
<path d="M51.9525 49.3013L48.75 46.0988V43.125C48.75 42.09 47.91 41.25 46.875 41.25C45.84 41.25 45 42.09 45 43.125V46.875C45 47.3738 45.1987 47.85 45.5475 48.2025L49.2975 51.9525C49.665 52.3163 50.145 52.5 50.625 52.5C51.105 52.5 51.585 52.3163 51.9525 51.9525C52.6838 51.2213 52.6838 50.0325 51.9525 49.3013Z" fill="#DF4945"/>
</svg>
