<svg width="60" height="60" viewBox="0 0 60 60" fill="none" xmlns="http://www.w3.org/2000/svg">
<path d="M12.5805 38.5905C11.4597 38.2479 10.645 37.2055 10.645 35.9727C10.645 35.2469 10.9333 34.5504 11.4465 34.0372L16.4515 29.0321V16.4515H20.3225V11.6128H3.87085V39.6773H12.5805C12.5805 39.3017 12.6514 38.9458 12.7506 38.6014L12.5805 38.5905Z" fill="#DF4945"/>
<path d="M59.9999 43.5483H42.5806V26.1289H59.9999V43.5483Z" fill="#DF4945"/>
<path d="M37.2066 27.1984L34.8387 26.0147V4.83871C34.8387 2.1708 32.6679 0 30 0H4.83871C2.1708 0 0 2.1708 0 4.83871V55.1613C0 57.8292 2.1708 60 4.83871 60H30C32.6679 60 34.8387 57.8292 34.8387 55.1613V43.3046C35.6576 43.1255 36.4567 42.8538 37.2066 42.4781C38.3402 41.913 39.608 41.6129 40.8734 41.6129H42.5806V39.6774H40.8734C39.3098 39.6774 37.7429 40.0469 36.3418 40.7468C35.2082 41.3128 33.9404 41.6129 32.675 41.6129H27.8944C26.8463 41.6129 25.8214 41.4154 24.8485 41.0265L23.2887 40.4023C22.088 39.9212 20.8211 39.6774 19.5249 39.6774H13.5484C13.5484 38.077 14.8512 36.7742 16.4516 36.7742H27.0968C28.6972 36.7742 30 35.4714 30 33.871C30 32.2705 28.6972 30.9677 27.0968 30.9677H25.5095L27.0755 25.174C28.2715 25.2048 29.4627 25.4921 30.534 26.0274L36.3404 28.9307C37.7419 29.6305 39.3098 30 40.8734 30H42.5806V28.0645H40.8734C39.608 28.0645 38.3402 27.7645 37.2066 27.1984V27.1984ZM4.83871 1.93548H30C31.6005 1.93548 32.9032 3.23825 32.9032 4.83871V7.74194H29.8512C29.2189 7.1456 28.3721 6.77419 27.4375 6.77419H27.1237C26.2027 6.77419 25.3531 7.14088 24.7133 7.74194H1.93548V4.83871C1.93548 3.23825 3.23825 1.93548 4.83871 1.93548ZM22.4594 34.8387H18.8412L22.9276 19.7187L26.2472 20.8249L22.4594 34.8387ZM25.5842 9.88817C25.7709 9.19449 26.405 8.70968 27.1237 8.70968H27.4375C28.3173 8.70968 29.0323 9.42462 29.0323 10.3045C29.0323 10.4458 29.0138 10.5851 28.977 10.7217L27.7914 15.1063L24.4723 14.0001L25.5842 9.88817ZM26.7523 18.9541L23.4328 17.8479L23.9672 15.8718L27.2863 16.978L26.7523 18.9541ZM30 58.0645H4.83871C3.23825 58.0645 1.93548 56.7617 1.93548 55.1613V52.2581H32.9032V55.1613C32.9032 56.7617 31.6005 58.0645 30 58.0645ZM20.6061 41.6932L19.8997 44.3063C19.713 44.9991 19.0789 45.4839 18.3602 45.4839H18.0464C17.1666 45.4839 16.4516 44.7689 16.4516 43.8891C16.4516 43.7478 16.47 43.6084 16.5069 43.4718L17.0092 41.6129H19.524C19.8888 41.6129 20.2489 41.646 20.6061 41.6932V41.6932ZM15.0047 41.6129L14.639 42.9667C14.5568 43.2668 14.5161 43.5763 14.5161 43.8891C14.5161 45.1975 15.24 46.3288 16.3009 46.9383L15.9966 48.1527L17.8744 48.6215L18.1749 47.4194H18.3602C19.9521 47.4194 21.3532 46.3472 21.7685 44.8105L22.4825 42.1695C22.5118 42.1809 22.5416 42.1889 22.5709 42.2003L24.1307 42.8245C25.3314 43.3055 26.5983 43.5493 27.8953 43.5493H32.6759C32.7525 43.5493 32.8276 43.5375 32.9042 43.5356V50.3226H1.93548V9.67742H23.636L19.6355 24.4799L16.4516 27.6638V27.0968H3.87097V29.0323H15.0832L13.1477 30.9677H3.87097V32.9032H11.2131L10.7633 33.3531C10.3413 33.775 10.0488 34.2863 9.87116 34.8387H3.87097V36.7742H9.77429C9.93967 37.5288 10.3295 38.2008 10.8909 38.7097H3.87097V40.6452H11.8818C12.2177 41.2212 12.8353 41.6129 13.5484 41.6129H15.0047ZM12.2537 37.3171C11.8624 36.9892 11.6129 36.511 11.6129 35.9728C11.6129 35.5073 11.8014 35.0518 12.1317 34.7215L18.6215 28.2308L16.8358 34.8387H16.4516C14.6447 34.8387 13.0848 35.8461 12.2537 37.3171ZM27.0968 32.9032C27.6298 32.9032 28.0645 33.337 28.0645 33.871C28.0645 34.4049 27.6298 34.8387 27.0968 34.8387H24.4634L24.9869 32.9032H27.0968ZM27.5915 23.2683L30.8458 11.2268C30.9271 10.9268 30.9677 10.6173 30.9677 10.3054C30.9677 10.0904 30.9418 9.8825 30.9039 9.67836H32.9032V25.0479L31.4001 24.2961C30.2159 23.7031 28.9113 23.3643 27.5915 23.2683V23.2683Z" fill="#333333"/>
<path d="M46.4517 26.1289H48.3871V35.8063H46.4517V26.1289Z" fill="white"/>
<path d="M46.4517 37.7417H48.3871V43.5482H46.4517V37.7417Z" fill="white"/>
<path d="M11.6128 54.1934H23.2257V56.1288H11.6128V54.1934Z" fill="#333333"/>
<path d="M3.87085 11.6128H5.80633V13.5483H3.87085V11.6128Z" fill="#333333"/>
<path d="M7.74194 11.6128H20.3226V13.5483H7.74194V11.6128Z" fill="#333333"/>
<path d="M3.87085 15.4839H5.80633V17.4194H3.87085V15.4839Z" fill="#333333"/>
<path d="M7.74194 15.4839H20.3226V17.4194H7.74194V15.4839Z" fill="#333333"/>
<path d="M3.87085 19.355H16.4515V21.2905H3.87085V19.355Z" fill="#333333"/>
<path d="M3.87085 23.2256H16.4515V25.1611H3.87085V23.2256Z" fill="#333333"/>
</svg>
