<svg width="60" height="60" viewBox="0 0 60 60" fill="none" xmlns="http://www.w3.org/2000/svg">
<path d="M8.34187 33.3422L15.9366 30.6619C17.0606 30.2653 17.8125 29.2022 17.8125 28.0097V27.7022C14.3653 25.4644 12.1875 21.6028 12.1875 17.3559V14.0625H13.8347C16.3809 14.0625 18.8241 13.0509 20.625 11.25C22.4259 13.0509 24.8681 14.0625 27.4153 14.0625H29.0625V17.3559C29.0625 21.6038 26.8847 25.4653 23.4375 27.7022V28.0097C23.4375 29.2022 24.1894 30.2653 25.3144 30.6619L32.9091 33.3422C33.285 31.9912 34.6875 31.7512 34.6875 29.9916C34.6875 27.9619 32.8125 27.9619 32.8125 25.9322C32.8125 23.9025 34.6875 23.9025 34.6875 21.8728C34.6875 19.8422 32.8125 19.8422 32.8125 17.8125V13.2722C32.8125 6.97781 27.7097 1.875 21.4153 1.875C17.9531 1.875 14.6784 3.44906 12.5156 6.15281L12.1875 6.5625C9.98344 7.11375 8.4375 9.09375 8.4375 11.3653V17.8125C8.4375 19.8431 6.5625 19.8431 6.5625 21.8728C6.5625 23.9025 8.4375 23.9025 8.4375 25.9322C8.4375 27.9619 6.5625 27.9619 6.5625 29.9916C6.5625 31.7512 7.965 31.9912 8.34187 33.3422Z" fill="#DF4945"/>
<path d="M48.3453 43.2785L46.8753 42.1704L45.4053 43.2785L44.8915 43.0329C44.3253 42.7629 43.8209 42.3822 43.3934 41.9004L43.0409 41.5038L43.6043 39.7057L42.1353 38.5994L42.1934 38.0688C42.2656 37.4172 42.4971 36.6672 42.7999 36.1122L43.0671 35.621L44.8615 35.6285L45.4137 33.955L45.9443 33.8454C46.5668 33.7169 47.1818 33.7169 47.8043 33.8454L48.3312 33.9541L48.8946 35.6304L50.5821 35.6182L50.8503 36.1113C51.2581 36.8594 51.4953 37.5175 51.5562 38.0679L51.6143 38.5985L50.1453 39.7047L50.7087 41.5029L50.3562 41.8994C49.9287 42.3804 49.4243 42.761 48.8581 43.0319L48.3453 43.2785ZM46.8753 39.8229L48.5168 41.0594C48.5412 41.0416 48.5656 41.0229 48.5881 41.0041L47.9618 39.0035L49.5678 37.7941C49.5349 37.7013 49.4946 37.6038 49.4496 37.5016L47.5521 37.5157L46.9165 35.6247C46.8903 35.6238 46.864 35.6247 46.8378 35.6247L46.2171 37.5091L44.2371 37.5007C44.2071 37.5897 44.179 37.6807 44.1546 37.7725L45.7887 39.0025L45.1624 41.0032C45.1849 41.0219 45.2093 41.0407 45.2337 41.0585L46.8753 39.8229Z" fill="#333333"/>
<path d="M21.5625 45H23.4375V46.875H21.5625V45Z" fill="#333333"/>
<path d="M21.5625 48.75H23.4375V50.625H21.5625V48.75Z" fill="#333333"/>
<path d="M53.4375 46.8745V55.986L46.875 54.3454L40.3125 55.986V46.8745H38.4375V52.4995H32.8125V40.312H30.9375V52.4995H19.6875V44.4829L21.5166 42.8563C24.5897 40.1254 26.7225 36.4682 27.6263 32.4716L32.8078 34.3007C33.7941 34.6495 34.7006 35.1754 35.5013 35.8663L36.7266 34.446C35.7478 33.6023 34.6387 32.9591 33.4322 32.5326L25.6266 29.7782C24.9337 29.5335 24.4697 28.9026 24.4022 28.1807C27.8503 25.7376 30 21.7438 30 17.3554V13.1245H27.4144C25.0997 13.1245 22.9247 12.2235 21.2878 10.5866L20.625 9.92383L19.9622 10.5866C18.3253 12.2235 16.1503 13.1245 13.8356 13.1245H11.25V17.3554C11.25 21.7438 13.3997 25.7376 16.8478 28.1807C16.7794 28.9016 16.3163 29.5335 15.6234 29.7782L7.81781 32.5326C3.70219 33.9848 0.9375 37.8932 0.9375 42.2573V54.3745H38.4375V58.3879L46.875 56.2785L55.3125 58.3879V46.8745H53.4375ZM20.625 41.1126C20.0653 40.5857 19.5375 40.0288 19.0528 39.4373L20.625 37.237L22.1972 39.4373C21.7125 40.0288 21.1847 40.5857 20.625 41.1126ZM25.8375 31.8407C25.38 33.981 24.5475 36.0201 23.3625 37.8445L21.7641 35.6066L24.5925 31.3645C24.7256 31.4301 24.8597 31.4957 25.0022 31.5463L25.8375 31.8407ZM13.125 17.3554V14.9995H13.8356C16.3491 14.9995 18.7275 14.1257 20.625 12.5216C22.5225 14.1257 24.9019 14.9995 27.4144 14.9995H28.125V17.3554C28.125 22.1657 25.1241 26.4323 20.625 28.0691C16.1259 26.4323 13.125 22.1666 13.125 17.3554V17.3554ZM20.3288 29.9516L20.625 30.0501L20.9212 29.9516C21.5391 29.7454 22.1306 29.4923 22.6997 29.2063C22.8112 29.5354 22.9669 29.8457 23.1619 30.1298L20.625 33.9341L18.0881 30.1279C18.2831 29.8438 18.435 29.5316 18.5466 29.2035C19.1166 29.4913 19.7091 29.7454 20.3288 29.9516V29.9516ZM16.2478 31.5454C16.3903 31.4948 16.5244 31.4291 16.6584 31.3635L19.4869 35.6057L17.8884 37.8435C16.7034 36.0191 15.8625 33.9829 15.4059 31.8426L16.2478 31.5454ZM17.8125 43.641V52.4995H10.3125V39.3745H8.4375V52.4995H2.8125V42.2573C2.8125 38.6863 5.07469 35.4885 8.44219 34.3007L13.6237 32.4716C14.4769 36.2432 16.4353 39.7016 19.2366 42.3754L17.8125 43.641Z" fill="#333333"/>
<path d="M46.875 50.625C40.155 50.625 34.6875 45.1575 34.6875 38.4375C34.6875 31.7175 40.155 26.25 46.875 26.25C53.595 26.25 59.0625 31.7175 59.0625 38.4375C59.0625 45.1575 53.595 50.625 46.875 50.625ZM46.875 30.9375C42.7397 30.9375 39.375 34.3022 39.375 38.4375C39.375 42.5728 42.7397 45.9375 46.875 45.9375C51.0103 45.9375 54.375 42.5728 54.375 38.4375C54.375 34.3022 51.0103 30.9375 46.875 30.9375Z" fill="#DF4945"/>
<path d="M46.875 46.875C42.2222 46.875 38.4375 43.0894 38.4375 38.4375C38.4375 33.7856 42.2222 30 46.875 30C51.5278 30 55.3125 33.7856 55.3125 38.4375C55.3125 43.0894 51.5278 46.875 46.875 46.875ZM46.875 31.875C43.2572 31.875 40.3125 34.8188 40.3125 38.4375C40.3125 42.0562 43.2572 45 46.875 45C50.4928 45 53.4375 42.0562 53.4375 38.4375C53.4375 34.8188 50.4928 31.875 46.875 31.875Z" fill="#333333"/>
<path d="M46.8319 24.375C45.3047 24.375 44.0625 23.1328 44.0625 21.6056V18.75H38.4375C36.8869 18.75 35.625 17.4881 35.625 15.9375V3.75C35.625 2.19937 36.8869 0.9375 38.4375 0.9375H56.25C57.8006 0.9375 59.0625 2.19937 59.0625 3.75V15.9375C59.0625 17.4881 57.8006 18.75 56.25 18.75H52.0641L49.1362 23.1422C48.6216 23.9137 47.76 24.375 46.8319 24.375ZM38.4375 2.8125C37.92 2.8125 37.5 3.23344 37.5 3.75V15.9375C37.5 16.4541 37.92 16.875 38.4375 16.875H45.9375V21.6056C45.9375 22.0987 46.3387 22.5 46.8319 22.5C47.1309 22.5 47.4094 22.3509 47.5763 22.1016L51.0609 16.875H56.25C56.7675 16.875 57.1875 16.4541 57.1875 15.9375V3.75C57.1875 3.23344 56.7675 2.8125 56.25 2.8125H38.4375Z" fill="#333333"/>
<path d="M45.9377 14.4508L42.4624 10.9755L43.788 9.6499L45.9377 11.7996L52.7749 4.9624L54.1005 6.28803L45.9377 14.4508Z" fill="#333333"/>
</svg>
