<svg width="60" height="60" viewBox="0 0 60 60" fill="none" xmlns="http://www.w3.org/2000/svg">
<g clip-path="url(#clip0)">
<path d="M59.8746 36.8616L57.2386 29.9999L59.8708 23.1345C60.1633 22.3771 59.9308 21.5147 59.3009 21.0047L53.5903 16.3778L52.4354 9.1149C52.308 8.31625 51.678 7.68632 50.8794 7.55884L43.6165 6.40397L38.9895 0.693404C38.4796 0.063479 37.621 -0.165244 36.8598 0.123472L29.9981 2.75941L23.1327 0.127221C22.3753 -0.165244 21.5166 0.063479 21.0067 0.697154L16.3797 6.40772L9.11685 7.56259C8.3182 7.69007 7.68827 8.32 7.56079 9.11865L6.40593 16.3815L0.695357 21.0085C0.0654321 21.5184 -0.163291 22.3771 0.125425 23.1345L2.75761 29.9999L0.125425 36.8653C-0.163291 37.6228 0.0654321 38.4814 0.695357 38.9913L6.40593 43.6183L7.56079 50.8812C7.68827 51.6798 8.3182 52.3098 9.11685 52.4372L16.3797 53.5921L21.0067 59.3027C21.5204 59.9363 22.379 60.1688 23.1364 59.8726L29.9981 57.2404L36.8635 59.8726C37.081 59.9551 37.3097 59.9963 37.5347 59.9963C38.0859 59.9963 38.6296 59.7526 38.9933 59.3027L43.6202 53.5921L50.8831 52.4372C51.6818 52.3098 52.3117 51.6798 52.4392 50.8812L53.5941 43.6183L59.3046 38.9913C59.9346 38.4814 60.1633 37.619 59.8746 36.8616ZM53.4741 30.6711L55.8775 36.9328L50.6619 41.1548C50.3019 41.4473 50.062 41.8598 49.9907 42.3172L48.9371 48.9427L42.3116 49.9963C41.8542 50.0675 41.4418 50.3075 41.1493 50.6675L36.9348 55.8831L30.673 53.4796C30.4556 53.4009 30.2268 53.3559 29.9981 53.3559C29.7694 53.3559 29.5407 53.3971 29.3269 53.4796L23.0652 55.8831L18.8432 50.6675C18.5507 50.3075 18.1383 50.0675 17.6808 49.9963L11.0554 48.9427L10.0017 42.3172C9.93051 41.8598 9.69053 41.4473 9.33058 41.1548L4.11495 36.9366L6.51841 30.6748C6.68339 30.2399 6.68339 29.7599 6.51466 29.3287L4.11495 23.0632L9.33058 18.8412C9.69053 18.5488 9.93051 18.1363 10.0017 17.6789L11.0554 11.0534L17.6808 9.9998C18.1383 9.92855 18.5507 9.68858 18.8432 9.32862L23.0614 4.11675L29.3232 6.52021C29.7544 6.68519 30.2343 6.68519 30.6655 6.52021L36.9273 4.11675L41.1493 9.33238C41.4418 9.69233 41.8542 9.9323 42.3116 10.0035L48.9371 11.0572L49.9907 17.6826C50.062 18.1401 50.3019 18.5525 50.6619 18.845L55.8775 23.067L53.4741 29.3287C53.3091 29.7599 53.3091 30.2399 53.4741 30.6711Z" fill="#DF4945"/>
<path d="M24.3739 15.002C21.273 15.002 18.7495 17.5254 18.7495 20.6263C18.7495 23.7272 21.273 26.2506 24.3739 26.2506C27.4747 26.2506 29.9982 23.7272 29.9982 20.6263C29.9982 17.5254 27.4747 15.002 24.3739 15.002ZM24.3739 22.5011C23.339 22.5011 22.4991 21.6612 22.4991 20.6263C22.4991 19.5914 23.339 18.7515 24.3739 18.7515C25.4087 18.7515 26.2486 19.5914 26.2486 20.6263C26.2486 21.6612 25.4087 22.5011 24.3739 22.5011Z" fill="#DF4945"/>
<path d="M35.6224 33.7495C32.5215 33.7495 29.998 36.273 29.998 39.3738C29.998 42.4747 32.5215 44.9982 35.6224 44.9982C38.7233 44.9982 41.2467 42.4747 41.2467 39.3738C41.2467 36.273 38.7233 33.7495 35.6224 33.7495ZM35.6224 41.2486C34.5875 41.2486 33.7476 40.4087 33.7476 39.3738C33.7476 38.339 34.5875 37.4991 35.6224 37.4991C36.6573 37.4991 37.4972 38.339 37.4972 39.3738C37.4972 40.4087 36.6573 41.2486 35.6224 41.2486Z" fill="#DF4945"/>
<path d="M40.4632 15.354C39.6233 14.754 38.4497 14.949 37.8497 15.7889L19.102 42.0358C18.4983 42.8757 18.6933 44.0493 19.5332 44.6492C19.8631 44.8854 20.2456 44.9979 20.6243 44.9979C21.2092 44.9979 21.7867 44.7242 22.1504 44.2143L40.8981 17.9674C41.5018 17.1238 41.3031 15.9539 40.4632 15.354Z" fill="#DF4945"/>
</g>
<defs>
<clipPath id="clip0">
<rect width="60" height="60" fill="white"/>
</clipPath>
</defs>
</svg>
