<svg width="60" height="60" viewBox="0 0 60 60" fill="none" xmlns="http://www.w3.org/2000/svg">
<g clip-path="url(#clip0)">
<path d="M36.7742 23.5029H34.8387V30.968H32.7379C32.3381 29.8414 31.2622 29.0325 30 29.0325C28.7379 29.0325 27.6619 29.8414 27.2622 30.968H25.1613V23.5039H23.2258V36.7744H25.1613V44.5163H34.8387V36.7744H36.7742V23.5029ZM32.9032 42.5809H27.0968V36.7744H29.0323V40.6454H30.9678V36.7744H32.9032V42.5809ZM25.1613 34.8389V32.9034H29.0323V31.9357C29.0323 31.4027 29.4661 30.968 30 30.968C30.534 30.968 30.9678 31.4027 30.9678 31.9357V32.9034H34.8387V34.8389H25.1613Z" fill="#333333"/>
<path d="M55.1613 13.5483H52.2581V15.4838H55.1613C56.7617 15.4838 58.0645 16.7866 58.0645 18.387V44.5161H44.2879L40.4169 46.4516H1.93548V18.387C1.93548 16.7866 3.23825 15.4838 4.83871 15.4838H7.74194V13.5483H4.83871C2.1708 13.5483 0 15.7191 0 18.387V49.3548C0 52.0227 2.1708 54.1935 4.83871 54.1935H17.4194V58.0645H13.5484V60H46.4516V58.0645H42.5806V54.1935H55.1613C57.8292 54.1935 60 52.0227 60 49.3548V18.387C60 15.7191 57.8292 13.5483 55.1613 13.5483V13.5483ZM40.6452 58.0645H19.3548V54.1935H40.6452V58.0645ZM55.1613 52.258H4.83871C3.23825 52.258 1.93548 50.9553 1.93548 49.3548V48.3871H40.8734L44.7444 46.4516H58.0645V49.3548C58.0645 50.9553 56.7617 52.258 55.1613 52.258Z" fill="#333333"/>
<path d="M50.3225 48.3872H52.258V50.3227H50.3225V48.3872Z" fill="#333333"/>
<path d="M54.1936 48.3872H56.1291V50.3227H54.1936V48.3872Z" fill="#333333"/>
<path d="M46.4517 48.3872H48.3871V50.3227H46.4517V48.3872Z" fill="#333333"/>
<path d="M36.7742 10.6452H34.8387V6.77419C34.8387 4.10629 32.6679 1.93548 30 1.93548C27.3321 1.93548 25.1613 4.10629 25.1613 6.77419V10.6452H23.2258V6.77419C23.2258 3.03884 26.2656 0 30 0C33.7344 0 36.7742 3.03884 36.7742 6.77419V10.6452Z" fill="#333333"/>
<path d="M30 27.0966C25.1972 27.0966 21.2903 23.1897 21.2903 18.3869V12.5805C21.2903 10.98 22.593 9.67725 24.1935 9.67725H35.8064C37.4069 9.67725 38.7096 10.98 38.7096 12.5805V18.3869C38.7096 23.1897 34.8028 27.0966 30 27.0966Z" fill="#DF4945"/>
<path d="M32.9031 16.4516C32.9031 14.8511 31.6004 13.5483 29.9999 13.5483C28.3994 13.5483 27.0967 14.8511 27.0967 16.4516C27.0967 17.7113 27.9085 18.7759 29.0322 19.1766V23.2258H30.9676V19.1766C32.0913 18.7759 32.9031 17.7113 32.9031 16.4516ZM29.9999 17.4193C29.4659 17.4193 29.0322 16.9846 29.0322 16.4516C29.0322 15.9186 29.4659 15.4838 29.9999 15.4838C30.5339 15.4838 30.9676 15.9186 30.9676 16.4516C30.9676 16.9846 30.5339 17.4193 29.9999 17.4193Z" fill="white"/>
<path d="M40.6453 11.6128H50.3227V13.5483H40.6453V11.6128Z" fill="#333333"/>
<path d="M40.2856 7.80711L49.964 3.93945L50.6823 5.73649L41.0039 9.60462L40.2856 7.80711Z" fill="#333333"/>
<path d="M40.2866 17.3493L41.0058 15.5522L50.6828 19.4232L49.964 21.2202L40.2866 17.3493Z" fill="#333333"/>
<path d="M9.67749 11.6128H19.3549V13.5483H9.67749V11.6128Z" fill="#333333"/>
<path d="M9.31836 5.73697L10.0371 3.93994L19.7145 7.81091L18.9958 9.60794L9.31836 5.73697Z" fill="#333333"/>
<path d="M9.31836 19.4214L18.9967 15.5537L19.715 17.3507L10.0366 21.2184L9.31836 19.4214Z" fill="#333333"/>
<path d="M21.2902 44.5162H3.87085V30.9678H21.2902V44.5162Z" fill="#DF4945"/>
<path d="M7.74194 38.7095H17.4194V40.645H7.74194V38.7095Z" fill="white"/>
<path d="M7.74194 34.8389H17.4194V36.7744H7.74194V34.8389Z" fill="white"/>
<path d="M56.1291 42.5806H38.7097V29.0322H56.1291V42.5806Z" fill="#DF4945"/>
<path d="M42.5806 36.7744H52.258V38.7099H42.5806V36.7744Z" fill="white"/>
<path d="M42.5806 32.9033H52.258V34.8388H42.5806V32.9033Z" fill="white"/>
</g>
<defs>
<clipPath id="clip0">
<rect width="60" height="60" fill="white"/>
</clipPath>
</defs>
</svg>
